<?xml version="1.0" standalone="no"?>
<!DOCTYPE svg PUBLIC "-//W3C//DTD SVG 1.0//EN" "http://www.w3.org/TR/2001/REC-SVG-20010904/DTD/svg10.dtd">
<svg xmlns="http://www.w3.org/2000/svg" xmlns:xlink="http://www.w3.org/1999/xlink" id="body_1" width="300" height="300">

<g transform="matrix(0.25 0 0 0.25 0 0)">
    <path d="M910.143 91.119L893.227 172.172C 875.889 174.896 859.19 179.912 843.536 186.915L843.536 186.915L785.307 128.09L718.998 181.75099L764.352 251.05399C 754.248 264.916 745.995 280.158 739.729 296.55698L739.729 296.55698L656.879 296.18298L647.973 381.05298L729.028 397.96698C 731.75104 415.296 736.774 431.86398 743.77 447.51196L743.77 447.51196L684.94604 505.88797L738.606 572.198L807.909 526.768C 821.761 536.866 837.028 545.203 853.413 551.466L853.413 551.466L853.038 634.24L937.90906 643.144L954.7471 562.091C 972.0931 559.369 988.78204 554.425 1004.4421 547.422L1004.4421 547.422L1062.743 606.247L1129.052 552.512L1083.624 483.28302C 1093.728 469.42603 1102.0541 454.17502 1108.321 437.78003L1108.321 437.78003L1191.094 438.08002L1200 353.21002L1118.947 336.445C 1116.222 319.091 1111.287 302.342 1104.277 286.67502L1104.277 286.67502L1163.101 228.44801L1109.367 162.139L1040.138 207.49301C 1026.2689 197.38202 1010.96796 189.06502 994.55994 182.796L994.55994 182.796L994.9329 100.022L910.143 91.119zM924.211 288.25C 926.879 288.259 929.584 288.34 932.295 288.624C 975.64996 293.179 1007.05096 332.008 1002.496 375.365C 997.941 418.72 959.11096 450.195 915.75397 445.63898C 872.399 441.08398 840.92395 402.25497 845.47894 358.89996C 849.748 318.253 884.203 288.111 924.211 288.25zM315.23 295.21L303.855 407.921C 280.65002 414.108 258.67 423.245 238.36902 435.013L238.36902 435.013L150.65503 363.31702L68.10503 445.867L139.80302 533.655C 128.03502 553.963 118.89302 575.927 112.71103 599.13904L112.71103 599.13904L0 610.44L0 727.191L112.71 738.56696C 118.892 761.75793 128.044 783.68494 139.802 803.9769L139.802 803.9769L68.104004 891.7659L150.654 974.3159L238.44301 902.6189C 258.73502 914.3769 280.66202 923.5289 303.854 929.7119L303.854 929.7119L315.229 1042.4219L431.98102 1042.4219L443.282 929.71185C 466.49402 923.5289 488.46002 914.38684 508.76602 902.61884L508.76602 902.61884L596.554 974.31586L679.104 891.76587L607.407 804.0519C 619.175 783.7499 628.313 761.7709 634.49896 738.5669L634.49896 738.5669L747.20996 727.1909L747.20996 610.44L634.5 599.138C 628.314 575.913 619.186 553.895 607.408 533.577L607.408 533.577L679.10504 445.86304L596.55505 363.31403L508.84204 435.01C 488.52603 423.23502 466.50604 414.105 443.28003 407.91702L443.28003 407.91702L431.97903 295.20703L315.23 295.20703L315.23 295.21zM373.606 560.82C 433.25497 560.82 481.602 609.168 481.602 668.81604C 481.602 728.463 433.255 776.81006 373.606 776.81006C 313.95798 776.81006 265.61 728.4631 265.61 668.81604C 265.61 609.168 313.958 560.82 373.606 560.82zM869.279 705.039L857.37897 764.312C 845.191 766.305 833.506 769.965 822.50195 775.088L822.50195 775.088L781.4899 732.055L734.93695 771.347L766.81995 822.014C 759.71796 832.157 753.86096 843.32196 749.457 855.31995L749.457 855.31995L691.30695 855.0189L685.01996 917.1369L741.975 929.4869C 743.88696 942.16486 747.38495 954.3379 752.303 965.78485L752.303 965.78485L710.99097 1008.44385L748.712 1056.9408L797.433 1023.7118C 807.169 1031.0978 817.87396 1037.1658 829.39 1041.7488L829.39 1041.7488L829.16504 1102.3698L888.81305 1108.8807L900.637 1049.5317C 912.82605 1047.5408 924.50604 1043.9528 935.512 1038.8297L935.512 1038.8297L976.526 1081.8627L1023.151 1042.5717L991.194 991.9037C 998.298 981.7647 1004.15295 970.5917 1008.55695 958.59766L1008.55695 958.59766L1066.7859 958.82367L1072.997 896.78064L1016.04395 884.43066C 1014.12994 871.73566 1010.64197 859.51965 1005.71594 848.05865L1005.71594 848.05865L1047.027 805.47363L1009.308 756.9016L960.662 790.1306C 950.916 782.7346 940.164 776.68164 928.631 772.0946L928.631 772.0946L928.93 711.5486L869.279 705.039zM879.158 849.183C 881.031 849.19196 882.94104 849.27496 884.846 849.484C 915.31903 852.815 937.367 881.229 934.166 912.94904C 930.965 944.668 903.71704 967.697 873.244 964.36505C 842.771 961.0331 820.648 932.6191 823.849 900.89905C 826.85 871.161 851.039 849.081 879.158 849.183z" stroke="none" fill="#000000" fill-rule="nonzero" />
</g>
</svg>