<?xml version="1.0" standalone="no"?>
<!DOCTYPE svg PUBLIC "-//W3C//DTD SVG 1.0//EN" "http://www.w3.org/TR/2001/REC-SVG-20010904/DTD/svg10.dtd">
<svg xmlns="http://www.w3.org/2000/svg" xmlns:xlink="http://www.w3.org/1999/xlink" id="body_1" width="307" height="230">

<g transform="matrix(0.44921875 0 0 0.44921875 38.5 -0)">
    <path d="M309.256 157.801L161.873 157.801L75.252 301.353L139.053 301.353L89.977 497.759L310.359 248.185L245.49301 248.185L309.256 157.801z" stroke="none" fill="#CEE8FA" fill-rule="nonzero" />
    <path d="M449.726 98.77C 447.42502 93.667 442.34402 90.384995 436.747 90.384995L436.747 90.384995L399.351 90.384995L447.277 22.446991C 450.34302 18.10099 450.73102 12.407991 448.284 7.684991C 445.836 2.965 440.961 0 435.642 0L435.642 0L288.259 0C 283.27 0 278.645 2.61 276.066 6.882L276.066 6.882L193.59401 143.561L161.87201 143.561C 156.88301 143.561 152.25801 146.171 149.67902 150.44301L149.67902 150.44301L63.061 293.997C 60.408 298.39502 60.329002 303.88 62.853 308.354C 65.377 312.828 70.116 315.59302 75.252 315.59302L75.252 315.59302L120.819 315.59302L76.162 494.309C 74.571 500.67798 77.54 507.30798 83.350006 510.36398C 85.449005 511.468 87.71901 511.99997 89.97101 511.99997C 93.95401 511.99997 97.87501 510.32797 100.65001 507.18597L100.65001 507.18597L321.032 257.61197C 324.738 253.41597 325.64 247.43697 323.337 242.33296C 321.036 237.22997 315.95502 233.94797 310.358 233.94797L310.358 233.94797L272.963 233.94797L320.889 166.00996C 323.953 161.66397 324.342 155.97096 321.894 151.24997C 319.446 146.52898 314.571 143.56396 309.252 143.56396L309.252 143.56396L226.854 143.56396L296.29602 28.478966L408.17 28.478966L360.24402 96.41697C 357.178 100.76297 356.79 106.45597 359.23703 111.17897C 361.68503 115.90097 366.56003 118.86497 371.87903 118.86497L371.87903 118.86497L405.17603 118.86497L360.99902 168.89397C 355.795 174.78897 356.35303 183.78697 362.24802 188.99297C 364.95602 191.38397 368.31802 192.55797 371.66702 192.55797C 375.61002 192.55797 379.53104 190.92996 382.346 187.74397L382.346 187.74397L447.419 114.05097C 451.126 109.852 452.029 103.873 449.726 98.77zM233.858 239.978C 230.794 244.32399 230.405 250.017 232.853 254.73799C 235.301 259.45898 240.176 262.42398 245.495 262.42398L245.495 262.42398L278.792 262.42398L117.944 444.578L152.87 304.806C 153.93199 300.553 152.97499 296.046 150.278 292.59C 147.578 289.134 143.439 287.11398 139.055 287.11398L139.055 287.11398L100.47499 287.11398L169.91098 172.03998L281.784 172.03998L233.858 239.978z" stroke="none" fill="#2D527C" fill-rule="nonzero" />
	<g>
	</g>
	<g>
	</g>
	<g>
	</g>
	<g>
	</g>
	<g>
	</g>
	<g>
	</g>
	<g>
	</g>
	<g>
	</g>
	<g>
	</g>
	<g>
	</g>
	<g>
	</g>
	<g>
	</g>
	<g>
	</g>
	<g>
	</g>
	<g>
	</g>
</g>
</svg>