<?xml version="1.0" standalone="no"?>
<!DOCTYPE svg PUBLIC "-//W3C//DTD SVG 1.0//EN" "http://www.w3.org/TR/2001/REC-SVG-20010904/DTD/svg10.dtd">
<svg xmlns="http://www.w3.org/2000/svg" xmlns:xlink="http://www.w3.org/1999/xlink" id="body_1" width="307" height="230">

<g transform="matrix(0.56209296 0 0 0.56209296 38.500008 -0)">
    <path d="M329.988 36.838L329.988 52.798L298.892 52.798L79.197 52.798L79.197 36.838C 79.197 16.488 95.686 0 116.035 0L116.035 0L293.15 0C 313.489 0 329.988 16.488 329.988 36.838z" stroke="none" fill="#B2B1AA" fill-rule="nonzero" />
    <path d="M117.366 354.187L329.98798 354.187L329.98798 372.34702C 329.98798 392.696 313.48898 409.18503 293.14996 409.18503L293.14996 409.18503L282.89795 409.18503L116.035 409.18503C 95.686005 409.18503 79.19701 392.69702 79.19701 372.34702L79.19701 372.34702L79.19701 354.187L117.366 354.187z" stroke="none" fill="#B2B1AA" fill-rule="nonzero" />
    <path d="M329.988 196.893L329.988 354.187L117.366 354.187L298.892 54.14L298.892 52.798L329.988 52.798L329.988 152.344L329.988 196.893" stroke="none" fill="#D3D1C1" fill-rule="nonzero" />
    <path d="M298.892 52.798L298.892 54.14L117.366 354.187L79.197 354.187L79.197 52.798L298.892 52.798" stroke="none" fill="#E2E0D0" fill-rule="nonzero" />
    <path d="M221.09201 381.686C 221.09203 386.2421 219.4812 390.13095 216.25955 393.35257C 213.03793 396.5742 209.14908 398.185 204.593 398.185C 200.03693 398.185 196.14809 396.5742 192.92645 393.35257C 189.70482 390.13095 188.094 386.2421 188.094 381.686C 188.094 377.12994 189.70482 373.2411 192.92645 370.01944C 196.14809 366.79782 200.03693 365.187 204.593 365.187C 209.14908 365.187 213.03793 366.79782 216.25955 370.01944C 219.4812 373.2411 221.09203 377.12994 221.09201 381.686C 221.09203 381.878 221.08867 382.06995 221.08195 382.2618" stroke="none" fill="#969489" fill-rule="nonzero" />
	<g>
        <path d="M166.148 237.323C 163.588 237.323 161.028 236.346 159.07599 234.393L159.07599 234.393L127.96599 203.27301C 124.06199 199.36801 124.06199 193.03702 127.96699 189.132L127.96699 189.132L159.077 158.022C 162.982 154.117 169.314 154.117 173.22 158.022C 177.125 161.927 177.125 168.259 173.22 172.16501L173.22 172.16501L149.18 196.20502L173.221 220.25401C 177.12599 224.16002 177.124 230.49101 173.219 234.39601C 171.265 236.346 168.706 237.323 166.148 237.323z" stroke="none" fill="#1A1A1A" fill-rule="nonzero" />
        <path d="M243.038 237.323C 240.47899 237.323 237.92099 236.347 235.96799 234.395C 232.06299 230.49 232.06198 224.159 235.96599 220.253L235.96599 220.253L260.007 196.20401L235.96698 172.164C 232.06198 168.259 232.06198 161.927 235.96698 158.022C 239.87398 154.117 246.20398 154.117 250.10999 158.022L250.10999 158.022L281.219 189.132C 285.123 193.037 285.124 199.367 281.22 203.27301L281.22 203.27301L250.11101 234.393C 248.158 236.345 245.598 237.323 243.038 237.323z" stroke="none" fill="#1A1A1A" fill-rule="nonzero" />
        <path d="M192.158 262.204C 191.519 262.204 190.871 262.142 190.22 262.015C 184.801 260.95102 181.27 255.69402 182.335 250.27501L182.335 250.27501L204.335 138.27501C 205.399 132.85501 210.656 129.326 216.07501 130.39001C 221.49402 131.45401 225.02402 136.71101 223.96 142.13002L223.96 142.13002L201.96 254.13002C 201.024 258.898 196.841 262.204 192.158 262.204z" stroke="none" fill="#1A1A1A" fill-rule="nonzero" />
	</g>
	<g>
	</g>
	<g>
	</g>
	<g>
	</g>
	<g>
	</g>
	<g>
	</g>
	<g>
	</g>
	<g>
	</g>
	<g>
	</g>
	<g>
	</g>
	<g>
	</g>
	<g>
	</g>
	<g>
	</g>
	<g>
	</g>
	<g>
	</g>
	<g>
	</g>
</g>
</svg>