<?xml version="1.0" standalone="no"?>
<!DOCTYPE svg PUBLIC "-//W3C//DTD SVG 1.0//EN" "http://www.w3.org/TR/2001/REC-SVG-20010904/DTD/svg10.dtd">
<svg xmlns="http://www.w3.org/2000/svg" xmlns:xlink="http://www.w3.org/1999/xlink" id="body_1" width="307" height="230">

<g transform="matrix(0.77902734 0 0 0.77902734 38.500008 -0)">
	<g>
		<g>
			<g>
                <path d="M276.19 186.196L276.19 109.044C 287.042 106.83 295.238 97.215 295.238 85.715C 295.238 72.586 284.557 61.905 271.428 61.905C 267.104 61.905 263.104 63.153 259.604 65.172L259.604 65.172L171.266 25.42C 171.304 24.877 171.42801 24.363 171.42801 23.81C 171.42801 10.681 160.74701 0 147.61801 0C 134.48901 0 123.808014 10.681 123.808014 23.81C 123.808014 24.362 123.932014 24.876999 123.97002 25.42L123.97002 25.42L35.633 65.172C 32.133 63.152996 28.133 61.905 23.808998 61.905C 10.681 61.906 0 72.587 0 85.715C 0 97.21 8.195 106.828995 19.048 109.044L19.048 109.044L19.048 186.196C 8.195 188.411 0 198.03 0 209.525C 0 222.65399 10.681 233.33499 23.81 233.33499C 28.133999 233.33499 32.134 232.08699 35.634 230.068L35.634 230.068L123.977005 269.82C 123.934006 270.363 123.810005 270.877 123.810005 271.43C 123.810005 284.559 134.491 295.24 147.62001 295.24C 160.74901 295.24 171.43001 284.559 171.43001 271.43C 171.43001 270.878 171.30602 270.363 171.268 269.82L171.268 269.82L259.61102 230.06801C 263.10602 232.087 267.10602 233.335 271.43002 233.335C 284.55902 233.335 295.24002 222.654 295.24002 209.52501C 295.238 198.03 287.043 188.411 276.19 186.196zM271.428 71.429C 279.30502 71.43 285.71402 77.839005 285.71402 85.715004C 285.71402 93.591 279.30402 100.00101 271.428 100.00101C 263.552 100.00101 257.142 93.591 257.142 85.715004C 257.142 77.839005 263.552 71.429 271.428 71.429zM266.667 109.044L266.667 186.196C 265.257 186.482 263.905 186.93 262.6 187.458L262.6 187.458L237.248 147.62L262.6 107.782C 263.91 108.306 265.257 108.753 266.667 109.044zM231.605 138.749L200.886 90.478L248.1 90.478L248.1 90.477C 249.052 95.144 251.376 99.32 254.62901 102.562996L254.62901 102.562996L231.605 138.749zM225.958 147.62L189.596 204.763L105.647995 204.763L69.286 147.62L105.648 90.47699L189.59601 90.47699L225.958 147.62zM168.671 34.696L251.905 72.153C 250.086 74.763 248.757 77.729004 248.1 80.953L248.1 80.953L194.824 80.953L167.11401 37.410004C 167.709 36.558 168.19 35.629 168.671 34.696zM147.619 9.525C 155.49501 9.525 161.905 15.934999 161.905 23.811C 161.905 31.687002 155.495 38.097 147.619 38.097C 139.74301 38.097 133.33301 31.687 133.33301 23.811C 133.33301 15.935001 139.743 9.525 147.619 9.525zM135.205 44.03C 138.829 46.263 143.057 47.62 147.619 47.62C 152.181 47.62 156.409 46.263 160.033 44.03L160.033 44.03L183.533 80.953995L111.704 80.953995L135.205 44.03zM126.571 34.697C 127.052 35.625 127.529 36.552998 128.124 37.411L128.124 37.411L100.413994 80.953995L47.138 80.953995C 46.481 77.729996 45.152 74.76399 43.333 72.15399L43.333 72.15399L126.571 34.697zM47.138 90.477L94.357 90.477L63.638 138.748L40.614 102.562C 43.862 99.32 46.186 95.144 47.138 90.477zM57.99 147.62L32.638 187.458C 31.333 186.92899 29.981 186.482 28.571001 186.196L28.571001 186.196L28.571001 109.044C 29.981 108.757996 31.333 108.311 32.638 107.782L32.638 107.782L57.99 147.62zM9.524 85.715C 9.524 77.839 15.934 71.42899 23.810001 71.42899C 31.686003 71.42899 38.096 77.83899 38.096 85.715C 38.096 93.591 31.686 100.001 23.810001 100.001C 15.934002 100.001 9.524 93.591 9.524 85.715zM23.81 223.811C 15.934 223.811 9.523999 217.401 9.523999 209.52501C 9.523999 201.64902 15.933999 195.23901 23.81 195.23901C 31.686 195.23901 38.096 201.64902 38.096 209.52501C 38.096 217.401 31.686 223.811 23.81 223.811zM63.633 156.491L94.352 204.762L47.138 204.762L47.138 204.763C 46.186 200.09601 43.862 195.92 40.609 192.677L40.609 192.677L63.633 156.491zM126.567 260.544L43.333 223.087C 45.152 220.477 46.481 217.511 47.138 214.287L47.138 214.287L100.414 214.287L128.124 257.83002C 127.529 258.682 127.048 259.611 126.567 260.544zM147.619 285.715C 139.743 285.715 133.33301 279.305 133.33301 271.429C 133.33301 263.55298 139.74301 257.14297 147.619 257.14297C 155.495 257.14297 161.905 263.55298 161.905 271.429C 161.905 279.306 155.495 285.715 147.619 285.715zM160.033 251.211C 156.40901 248.978 152.181 247.621 147.619 247.621C 143.057 247.621 138.82901 248.978 135.205 251.211L135.205 251.211L111.705 214.287L183.52899 214.287L160.033 251.211zM168.667 260.544C 168.186 259.61502 167.71 258.687 167.11401 257.83002L167.11401 257.83002L194.824 214.28702L248.1 214.28702C 248.757 217.51102 250.086 220.47702 251.905 223.08702L251.905 223.08702L168.667 260.544zM248.1 204.763L200.88101 204.763L231.6 156.491L254.62401 192.677C 251.376 195.92 249.052 200.096 248.1 204.763zM271.429 223.811C 263.55298 223.811 257.14297 217.401 257.14297 209.52501C 257.14297 201.64902 263.55298 195.23901 271.429 195.23901C 279.305 195.23901 285.715 201.64902 285.715 209.52501C 285.714 217.401 279.305 223.811 271.429 223.811z" stroke="none" fill="#000000" fill-rule="nonzero" />
                <path d="M147.619 95.239C 118.73801 95.239 95.23801 118.739 95.23801 147.62C 95.23801 176.50099 118.73801 200.00099 147.619 200.00099C 176.5 200.00099 200 176.50099 200 147.62C 200 118.739 176.5 95.239 147.619 95.239zM133.89 107.058C 130.395 111.409996 126.733 117.058 123.904 123.81L123.904 123.81L112.01 123.81C 117.21 116.053 124.89 110.115 133.89 107.058zM107.261 133.334L120.794 133.334C 120.067 136.349 119.533 139.515 119.270996 142.858L119.270996 142.858L105.04199 142.858C 105.409 139.553 106.185 136.372 107.261 133.334zM107.258 161.906C 106.186005 158.86801 105.41 155.68701 105.04301 152.382L105.04301 152.382L119.272 152.382C 119.534004 155.725 120.067 158.892 120.791 161.906L120.791 161.906L107.258 161.906zM112.01 171.43L123.905 171.43C 126.734 178.18199 130.395 183.82999 133.89099 188.18199C 124.89 185.125 117.21 179.187 112.01 171.43zM142.857 184.001C 140.081 180.78201 137.01399 176.55801 134.414 171.43001L134.414 171.43001L142.857 171.43001L142.857 184.001zM142.857 161.906L130.614 161.906C 129.748 158.93001 129.119 155.74901 128.805 152.382L128.805 152.382L142.857 152.382L142.857 161.906zM142.857 142.858L128.805 142.858C 129.124 139.491 129.762 136.315 130.63399 133.334L130.63399 133.334L142.857 133.334L142.857 142.858zM142.857 123.811L134.452 123.811C 137.04199 118.715996 140.095 114.501 142.857 111.286995L142.857 111.286995L142.857 123.811zM183.229 123.811L171.334 123.811C 168.505 117.059 164.844 111.410995 161.34799 107.059C 170.348 110.115 178.029 116.053 183.229 123.811zM166.434 142.858L152.382 142.858L152.382 133.334L164.62401 133.334C 165.486 136.31 166.119 139.491 166.434 142.858zM152.381 111.24C 155.157 114.459 158.224 118.683 160.82399 123.811L160.82399 123.811L152.381 123.811L152.381 111.24zM152.381 152.382L166.433 152.382C 166.114 155.74901 165.476 158.925 164.604 161.906L164.604 161.906L152.38101 161.906L152.38101 152.382zM152.381 183.954L152.381 171.43L160.786 171.43C 158.196 176.525 155.143 180.74 152.381 183.954zM161.348 188.182C 164.843 183.83 168.505 178.182 171.33401 171.43001L171.33401 171.43001L183.22902 171.43001C 178.029 179.187 170.348 185.125 161.348 188.182zM187.977 161.906L174.444 161.906C 175.171 158.891 175.705 155.725 175.967 152.382L175.967 152.382L190.196 152.382C 189.829 155.687 189.053 158.868 187.977 161.906zM190.2 142.858L175.967 142.858C 175.705 139.515 175.172 136.348 174.448 133.334L174.448 133.334L187.981 133.334C 189.062 136.372 189.833 139.553 190.2 142.858z" stroke="none" fill="#000000" fill-rule="nonzero" />
                <path d="M142.857 61.906L152.381 61.906L152.381 71.43L142.857 71.43z" stroke="none" fill="#000000" fill-rule="nonzero" />
                <path d="M142.857 223.811L152.381 223.811L152.381 233.335L142.857 233.335z" stroke="none" fill="#000000" fill-rule="nonzero" />
                <path d="M223.81 185.715L233.334 185.715L233.334 195.239L223.81 195.239z" stroke="none" fill="#000000" fill-rule="nonzero" />
                <path d="M61.905 185.715L71.429 185.715L71.429 195.239L61.905 195.239z" stroke="none" fill="#000000" fill-rule="nonzero" />
                <path d="M223.81 100.001L233.334 100.001L233.334 109.525L223.81 109.525z" stroke="none" fill="#000000" fill-rule="nonzero" />
                <path d="M61.905 100.001L71.429 100.001L71.429 109.525L61.905 109.525z" stroke="none" fill="#000000" fill-rule="nonzero" />
			</g>
		</g>
	</g>
	<g>
	</g>
	<g>
	</g>
	<g>
	</g>
	<g>
	</g>
	<g>
	</g>
	<g>
	</g>
	<g>
	</g>
	<g>
	</g>
	<g>
	</g>
	<g>
	</g>
	<g>
	</g>
	<g>
	</g>
	<g>
	</g>
	<g>
	</g>
	<g>
	</g>
</g>
</svg>